<svg width="106" height="39" viewBox="0 0 106 39" fill="none" xmlns="http://www.w3.org/2000/svg">
<path d="M48.6042 0.529668L37.6029 20.895L23.8786 20.9153L16.2437 35.0641L16.2431 35.0637L16.1773 35.1856L16.178 35.1859L14.5318 38.2333L10.2882 38.2397C14.0505 31.2745 17.8125 24.3092 21.5757 17.3446L35.2916 17.3242L42.7144 3.58342L22.9584 3.61264L21.399 6.49946L17.1511 6.50575C18.3149 4.3511 19.4787 2.19637 20.6429 0.0419009C30.0586 0.0271309 39.4745 0.0139075 48.8904 0L48.6042 0.529668Z" fill="#333333"/>
<path d="M27.5542 26.5637L26.2433 28.9903L33.0992 28.98L28.1736 38.098C24.5645 38.1039 20.9553 38.1088 17.3461 38.114L19.1542 34.7669L22.7082 34.7644L26.0088 34.7597L27.321 32.3306L20.465 32.3405C22.1068 29.3011 23.7484 26.2617 25.3905 23.2226L36.218 23.2065L34.4099 26.5535L27.5542 26.5637Z" fill="#CFA767"/>
<path d="M18.2813 12.2701L12.4166 23.1265L15.8444 23.1216L13.9121 26.6986L10.4843 26.7037L4.24797 38.2482L4.57764e-05 38.2545C5.32132 28.4035 10.6419 18.5522 15.9643 8.70192C21.9522 8.6925 27.9402 8.68417 33.9282 8.67529L31.9973 12.2497L18.2813 12.2701Z" fill="#CFA767"/>
<path fill-rule="evenodd" clip-rule="evenodd" d="M36.0422 30.1909H105.806V38.2549H31.6861L36.0422 30.1909ZM46.029 35.7752C45.2302 35.7878 44.5467 35.1376 44.5631 34.3312C44.5508 33.5332 45.2261 32.8703 46.0331 32.8872C46.5766 32.8872 47.0295 33.1616 47.2766 33.6345L46.7372 34.0103C46.5601 33.7063 46.3254 33.5543 46.029 33.5543C45.5966 33.5543 45.2878 33.8667 45.2878 34.3354C45.2878 34.5676 45.3578 34.7534 45.4937 34.8969C45.6337 35.0363 45.8107 35.1081 46.029 35.1081C46.3254 35.1081 46.5601 34.9561 46.7372 34.6521L47.2766 35.0278C47.0295 35.5007 46.5766 35.7752 46.029 35.7752ZM50.6652 35.7245H48.833V32.9379H49.5412V35.07H50.6652V35.7245ZM52.8969 35.7245H52.1887V32.9379H52.8969V35.7245ZM55.9191 35.7752C55.1204 35.7878 54.4368 35.1376 54.4533 34.3312C54.441 33.5332 55.1162 32.8703 55.9233 32.8872C56.4667 32.8872 56.9196 33.1616 57.1667 33.6345L56.6273 34.0103C56.4503 33.7063 56.2156 33.5543 55.9191 33.5543C55.4868 33.5543 55.178 33.8667 55.178 34.3354C55.178 34.5676 55.248 34.7534 55.3839 34.8969C55.5239 35.0363 55.7009 35.1081 55.9191 35.1081C56.2156 35.1081 56.4503 34.9561 56.6273 34.6521L57.1667 35.0278C56.9196 35.5007 56.4667 35.7752 55.9191 35.7752ZM60.2178 34.2636L61.3048 35.7245H60.4648L59.4313 34.3354V35.7245H58.7231V32.9379H59.4313V34.2003L60.3289 32.9379H61.1524L60.2178 34.2636ZM63.3017 36.4718H62.7459V35.1123H63.5488L63.3017 36.4718ZM68.1398 35.7245H67.4316V32.9379H68.498C69.1033 32.9379 69.548 33.3178 69.548 33.8963C69.548 34.4663 69.091 34.859 68.498 34.859H68.1398V35.7245ZM68.1398 33.5712V34.2256H68.5022C68.6998 34.2256 68.8275 34.0947 68.8275 33.8963C68.8275 33.6978 68.6998 33.5712 68.5022 33.5712H68.1398ZM73.1878 35.7245H72.4261L72.3273 35.4923H71.3514L71.2526 35.7245H70.4909L71.7261 32.8872H71.9526L73.1878 35.7245ZM71.6026 34.9096H72.0761L71.8414 34.2636L71.6026 34.9096ZM75.8024 32.9379H76.5806L75.6501 34.6563V35.7245H74.9419V34.6647L74.0072 32.9379H74.7896L75.296 33.9089L75.8024 32.9379ZM82.6416 34.479C82.4234 34.7914 82.2627 35.0109 82.1598 35.1418L82.6251 35.7245H81.8057L81.6863 35.5767C81.4763 35.7076 81.2457 35.7752 80.9946 35.7752C80.4387 35.7752 80.064 35.4542 80.064 34.9687C80.064 34.8209 80.1011 34.6858 80.1711 34.5676C80.2452 34.4452 80.377 34.3058 80.5623 34.1496C80.4264 33.9596 80.3605 33.7738 80.3605 33.5881C80.3605 33.1659 80.6652 32.8872 81.1305 32.8872C81.3487 32.8872 81.5257 32.9463 81.6616 33.0645C81.7975 33.1827 81.8675 33.3347 81.8675 33.5247C81.8675 33.7907 81.7522 33.9934 81.4516 34.2509L81.4475 34.2552L81.7316 34.6056C81.7991 34.5172 81.8734 34.4079 81.9575 34.2839L81.9828 34.2467L82.1022 34.0736L82.6416 34.479ZM81.1181 33.4867C81.0399 33.4867 80.9822 33.5374 80.9822 33.6049C80.9822 33.6556 81.0028 33.6978 81.081 33.7949L81.1016 33.8203L81.1387 33.7907C81.2087 33.7274 81.2457 33.6683 81.2457 33.6049C81.2457 33.5332 81.1963 33.4867 81.1181 33.4867ZM81.0399 35.1503C81.1264 35.1503 81.2087 35.125 81.291 35.0743L80.9328 34.6183C80.7969 34.7365 80.7558 34.8125 80.7558 34.9012C80.7558 35.049 80.8711 35.1503 81.0399 35.1503ZM87.4261 35.7752C86.9361 35.7752 86.5408 35.5345 86.3432 35.1503L86.8208 34.7787C86.9814 34.9982 87.1502 35.1376 87.4261 35.1376C87.6114 35.1376 87.7061 35.07 87.7061 34.9349C87.7061 34.8125 87.6443 34.7745 87.4302 34.6774L87.1502 34.5507C86.7014 34.348 86.4626 34.0863 86.4626 33.7105C86.4626 33.2165 86.8578 32.8872 87.4137 32.8872C87.8625 32.8872 88.1796 33.1067 88.3443 33.4487L87.8708 33.8203C87.739 33.6176 87.6155 33.5247 87.4219 33.5247C87.2737 33.5247 87.179 33.5839 87.179 33.7021C87.179 33.8034 87.2367 33.8583 87.4137 33.9301L87.7267 34.0652C88.2002 34.2678 88.4225 34.5127 88.4225 34.9054C88.4225 35.4458 87.9901 35.7752 87.4261 35.7752ZM91.3624 34.3354L92.5194 32.8872H92.7459V35.7245H92.0377V34.5549L91.4735 35.2305H91.2471L90.6871 34.5592V35.7245H89.9789V32.8872H90.2054L91.3624 34.3354ZM95.1504 35.7245H94.4423V32.9379H95.1504V35.7245ZM98.6791 35.7245H96.8469V32.9379H97.555V35.07H98.6791V35.7245ZM102.138 35.7245H100.203V32.9379H102.088V33.5923H100.911V33.9765H101.751V34.5845H100.911V35.07H102.138V35.7245Z" fill="#CFA767"/>
<path d="M106 18.1494L102.011 25.865V29.6735H99.2037V25.865L95.2146 18.1494H98.3993L100.632 22.9758L102.848 18.1494H106Z" fill="#333333"/>
<path d="M91.1874 27.6379H86.8864L86.1969 29.6735H83.2585L87.4281 18.1494H90.6785L94.8482 29.6735H91.8769L91.1874 27.6379ZM90.4651 25.471L89.0369 21.2521L87.6251 25.471H90.4651Z" fill="#333333"/>
<path d="M82.5528 21.8595C82.5528 22.527 82.3996 23.1399 82.0932 23.6981C81.7868 24.2453 81.3162 24.6885 80.6814 25.0278C80.0466 25.367 79.2587 25.5367 78.3175 25.5367H76.5774V29.6735H73.7702V18.1494H78.3175C79.2368 18.1494 80.0138 18.3081 80.6486 18.6255C81.2833 18.9429 81.7594 19.3806 82.0768 19.9388C82.3942 20.4969 82.5528 21.1371 82.5528 21.8595ZM78.1041 23.3041C78.6403 23.3041 79.0398 23.1782 79.3025 22.9265C79.5651 22.6748 79.6964 22.3191 79.6964 21.8595C79.6964 21.3998 79.5651 21.0441 79.3025 20.7924C79.0398 20.5407 78.6403 20.4148 78.1041 20.4148H76.5774V23.3041H78.1041Z" fill="#333333"/>
<path d="M65.615 29.6735L63.2675 26.1441L61.1991 29.6735H58.0143L61.708 23.813L57.9323 18.1494H61.1991L63.5137 21.6296L65.5493 18.1494H68.7341L65.0733 23.9607L68.8818 29.6735H65.615Z" fill="#333333"/>
<path d="M56.5216 18.1494V29.6735H53.7145V18.1494H56.5216Z" fill="#333333"/>
<path d="M52.2392 18.1494V20.3984H47.5441V22.828H51.0572V25.0114H47.5441V29.6735H44.737V18.1494H52.2392Z" fill="#333333"/>
</svg>
