<svg width="24" height="24" viewBox="0 0 24 24" fill="none" xmlns="http://www.w3.org/2000/svg">
<g clip-path="url(#clip0_2008_3951)">
<path d="M12 21C16.9706 21 21 16.9706 21 12C21 7.02944 16.9706 3 12 3C7.02944 3 3 7.02944 3 12C3 16.9706 7.02944 21 12 21Z" fill="#CFA767"/>
<path d="M13.0625 16.875C13.0625 17.4618 12.5868 17.9375 12 17.9375C11.4132 17.9375 10.9375 17.4618 10.9375 16.875C10.9375 16.2882 11.4132 15.8125 12 15.8125C12.5868 15.8125 13.0625 16.2882 13.0625 16.875Z" fill="#333333" stroke="#333333" stroke-width="0.125"/>
<path d="M12 13.5V12.75C13.6566 12.75 15 11.5744 15 10.125C15 8.67562 13.6566 7.5 12 7.5C10.3434 7.5 9 8.67562 9 10.125V10.5" stroke="#333333" stroke-linecap="round" stroke-linejoin="round"/>
</g>
<defs>
<clipPath id="clip0_2008_3951">
<rect width="24" height="24" fill="white"/>
</clipPath>
</defs>
</svg>
