<svg width="24" height="24" viewBox="0 0 24 24" fill="none" xmlns="http://www.w3.org/2000/svg">
<path fill-rule="evenodd" clip-rule="evenodd" d="M3 10.6728C3.0001 9.44921 3.29281 8.24337 3.8537 7.15589C4.41459 6.06842 5.2274 5.13085 6.22432 4.42141C7.22123 3.71197 8.37334 3.25123 9.58453 3.07762C10.7957 2.90402 12.0309 3.02259 13.1869 3.42344C14.3429 3.8243 15.3864 4.49581 16.2301 5.38195C17.0739 6.26809 17.6935 7.34317 18.0373 8.51749C18.381 9.69181 18.439 10.9313 18.2064 12.1326C17.9737 13.3339 17.4571 14.4621 16.6998 15.4231L19.9965 18.72C20.161 18.8903 20.252 19.1183 20.2499 19.355C20.2479 19.5917 20.1529 19.8182 19.9855 19.9855C19.8182 20.1529 19.5918 20.2479 19.3551 20.2499C19.1184 20.252 18.8903 20.161 18.7201 19.9965L15.4233 16.6997C14.2919 17.5916 12.9322 18.1469 11.4998 18.3021C10.0675 18.4574 8.6204 18.2062 7.32415 17.5773C6.0279 16.9485 4.93487 15.9674 4.17014 14.7463C3.40542 13.5253 2.9999 12.1136 3 10.6728ZM10.6732 6.61039C10.4338 6.61039 10.2042 6.7055 10.0349 6.87481C9.86556 7.04411 9.77045 7.27373 9.77045 7.51315C9.77045 7.75258 9.86556 7.9822 10.0349 8.1515C10.2042 8.3208 10.4338 8.41592 10.6732 8.41592C11.2717 8.41592 11.8458 8.6537 12.269 9.07695C12.6922 9.5002 12.93 10.0743 12.93 10.6728C12.93 10.9122 13.0251 11.1419 13.1944 11.3112C13.3637 11.4805 13.5933 11.5756 13.8327 11.5756C14.0721 11.5756 14.3018 11.4805 14.4711 11.3112C14.6403 11.1419 14.7355 10.9122 14.7355 10.6728C14.7355 9.5954 14.3075 8.5621 13.5456 7.80025C12.7838 7.0384 11.7506 6.61039 10.6732 6.61039Z" fill="#CFA767"/>
</svg>
